<svg width="142" height="34" viewBox="0 0 142 34" fill="none" xmlns="http://www.w3.org/2000/svg">
<path d="M21.7159 18.0175C21.7476 15.5472 23.0725 13.2098 25.1742 11.916C23.8483 10.0198 21.6275 8.81763 19.317 8.74524C16.8526 8.48623 14.4635 10.2219 13.2077 10.2219C11.9276 10.2219 9.9941 8.77096 7.91204 8.81386C5.19816 8.90165 2.66815 10.4467 1.34779 12.8225C-1.49046 17.743 0.626619 24.9746 3.34542 28.952C4.7057 30.8996 6.29547 33.0752 8.37566 32.998C10.4112 32.9135 11.1715 31.6982 13.6286 31.6982C16.0629 31.6982 16.7762 32.998 18.8986 32.949C21.0829 32.9135 22.4591 30.9927 23.7716 29.0266C24.749 27.6389 25.5011 26.1051 26 24.4821C23.4331 23.395 21.7189 20.8083 21.7159 18.0175Z" fill="black"/>
<path d="M17.707 6.12951C18.898 4.6979 19.4847 2.85781 19.3426 1C17.5231 1.19136 15.8424 2.06213 14.6353 3.43882C13.455 4.78391 12.8407 6.59163 12.9569 8.37843C14.777 8.39719 16.5664 7.55002 17.707 6.12951Z" fill="black"/>
<path d="M36 0.402125V8.57489H39.053C41.5728 8.57489 43.0319 7.074 43.0319 4.46302C43.0319 1.89169 41.5611 0.402125 39.053 0.402125H36ZM37.3126 1.55753H38.9065C40.6586 1.55753 41.6958 2.63363 41.6958 4.48001C41.6958 6.3547 40.6762 7.41948 38.9065 7.41948H37.3126V1.55753Z" fill="black"/>
<path d="M47.5007 8.69382C49.3641 8.69382 50.5068 7.48745 50.5068 5.48815C50.5068 3.50018 49.3583 2.28815 47.5007 2.28815C45.6372 2.28815 44.4887 3.50018 44.4887 5.48815C44.4887 7.48745 45.6314 8.69382 47.5007 8.69382ZM47.5007 7.61205C46.4049 7.61205 45.7896 6.83612 45.7896 5.48815C45.7896 4.15151 46.4049 3.36992 47.5007 3.36992C48.5906 3.36992 49.2118 4.15151 49.2118 5.48815C49.2118 6.83046 48.5906 7.61205 47.5007 7.61205Z" fill="black"/>
<path d="M60.2378 2.40708H58.9779L57.8411 7.11364H57.7415L56.4288 2.40708H55.2217L53.9091 7.11364H53.8153L52.6726 2.40708H51.3952L53.1532 8.57489H54.4482L55.7608 4.03258H55.8604L57.1789 8.57489H58.4857L60.2378 2.40708Z" fill="black"/>
<path d="M61.6887 8.57489H62.9486V4.96709C62.9486 4.00426 63.5404 3.4039 64.4722 3.4039C65.4039 3.4039 65.8493 3.89665 65.8493 4.8878V8.57489H67.1091V4.58196C67.1091 3.11505 66.3239 2.28815 64.8999 2.28815C63.9389 2.28815 63.306 2.7016 62.9955 3.38691H62.9017V2.40708H61.6887V8.57489Z" fill="black"/>
<path d="M69.0933 8.57489H70.3532V0H69.0933V8.57489Z" fill="black"/>
<path d="M75.0915 8.69382C76.955 8.69382 78.0977 7.48745 78.0977 5.48815C78.0977 3.50018 76.9491 2.28815 75.0915 2.28815C73.2281 2.28815 72.0795 3.50018 72.0795 5.48815C72.0795 7.48745 73.2222 8.69382 75.0915 8.69382ZM75.0915 7.61205C73.9957 7.61205 73.3804 6.83612 73.3804 5.48815C73.3804 4.15151 73.9957 3.36992 75.0915 3.36992C76.1815 3.36992 76.8026 4.15151 76.8026 5.48815C76.8026 6.83046 76.1815 7.61205 75.0915 7.61205Z" fill="black"/>
<path d="M81.8515 7.6517C81.1659 7.6517 80.6678 7.32887 80.6678 6.77382C80.6678 6.2301 81.0663 5.94125 81.9453 5.88461L83.504 5.78833V6.30373C83.504 7.06833 82.8008 7.6517 81.8515 7.6517ZM81.5292 8.67683C82.3672 8.67683 83.0645 8.32568 83.4454 7.70833H83.545V8.57489H84.758V4.36107C84.758 3.05841 83.8556 2.28815 82.2558 2.28815C80.8084 2.28815 79.7771 2.96779 79.6482 4.02691H80.8671C81.0077 3.5908 81.4941 3.3416 82.1973 3.3416C83.0587 3.3416 83.504 3.70974 83.504 4.36107V4.89346L81.7753 4.98975C80.2576 5.08036 79.4021 5.72037 79.4021 6.83046C79.4021 7.95754 80.2986 8.67683 81.5292 8.67683Z" fill="black"/>
<path d="M89.0334 8.67683C89.9124 8.67683 90.6566 8.27471 91.0375 7.60072H91.1371V8.57489H92.3443V0H91.0844V3.38691H90.9906C90.6449 2.70726 89.9066 2.30514 89.0334 2.30514C87.422 2.30514 86.3847 3.53983 86.3847 5.48815C86.3847 7.44214 87.4102 8.67683 89.0334 8.67683ZM89.3909 3.39824C90.4457 3.39824 91.1078 4.20815 91.1078 5.49382C91.1078 6.78515 90.4515 7.58373 89.3909 7.58373C88.3244 7.58373 87.6856 6.79647 87.6856 5.48815C87.6856 4.19116 88.3302 3.39824 89.3909 3.39824Z" fill="black"/>
<path d="M100.514 8.69382C102.378 8.69382 103.52 7.48745 103.52 5.48815C103.52 3.50018 102.372 2.28815 100.514 2.28815C98.6507 2.28815 97.5022 3.50018 97.5022 5.48815C97.5022 7.48745 98.6449 8.69382 100.514 8.69382ZM100.514 7.61205C99.4184 7.61205 98.8031 6.83612 98.8031 5.48815C98.8031 4.15151 99.4184 3.36992 100.514 3.36992C101.604 3.36992 102.225 4.15151 102.225 5.48815C102.225 6.83046 101.604 7.61205 100.514 7.61205Z" fill="black"/>
<path d="M105.188 8.57489H106.448V4.96709C106.448 4.00426 107.04 3.4039 107.972 3.4039C108.903 3.4039 109.349 3.89665 109.349 4.8878V8.57489H110.608V4.58196C110.608 3.11505 109.823 2.28815 108.399 2.28815C107.438 2.28815 106.805 2.7016 106.495 3.38691H106.401V2.40708H105.188V8.57489Z" fill="black"/>
<path d="M116.411 0.872214V2.4354H115.397V3.46054H116.411V6.94373C116.411 8.13311 116.968 8.60887 118.368 8.60887C118.614 8.60887 118.849 8.58055 119.054 8.54657V7.53276C118.878 7.54975 118.767 7.56108 118.573 7.56108C117.946 7.56108 117.671 7.27789 117.671 6.63223V3.46054H119.054V2.4354H117.671V0.872214H116.411Z" fill="black"/>
<path d="M120.745 8.57489H122.005V4.97275C122.005 4.03824 122.579 3.40956 123.61 3.40956C124.501 3.40956 124.976 3.90797 124.976 4.89346V8.57489H126.236V4.59328C126.236 3.12638 125.398 2.29381 124.038 2.29381C123.077 2.29381 122.403 2.70726 122.093 3.39824H121.993V0H120.745V8.57489Z" fill="black"/>
<path d="M130.781 3.32461C131.712 3.32461 132.322 3.95328 132.351 4.92178H129.128C129.198 3.95895 129.849 3.32461 130.781 3.32461ZM132.345 6.90975C132.111 7.39117 131.589 7.65736 130.828 7.65736C129.82 7.65736 129.169 6.97205 129.128 5.89028V5.82231H133.634V5.39753C133.634 3.46054 132.562 2.28815 130.787 2.28815C128.988 2.28815 127.845 3.53983 127.845 5.51081C127.845 7.48179 128.964 8.69382 130.792 8.69382C132.251 8.69382 133.271 8.01418 133.558 6.90975H132.345Z" fill="black"/>
<path d="M102.463 14.4941V17.6205H100.435V19.6708H102.463V26.6372C102.463 29.0159 103.576 29.9674 106.377 29.9674C106.87 29.9674 107.338 29.9108 107.749 29.8428V27.8152C107.397 27.8492 107.174 27.8718 106.788 27.8718C105.534 27.8718 104.983 27.3055 104.983 26.0141V19.6708H107.749V17.6205H104.983V14.4941H102.463Z" fill="black"/>
<path d="M114.884 30.1373C118.611 30.1373 120.896 27.7246 120.896 23.726C120.896 19.7501 118.599 17.326 114.884 17.326C111.157 17.326 108.86 19.7501 108.86 23.726C108.86 27.7246 111.145 30.1373 114.884 30.1373ZM114.884 27.9738C112.692 27.9738 111.462 26.4219 111.462 23.726C111.462 21.0527 112.692 19.4895 114.884 19.4895C117.064 19.4895 118.306 21.0527 118.306 23.726C118.306 26.4106 117.064 27.9738 114.884 27.9738Z" fill="black"/>
<path d="M122.852 29.8995H125.371V22.6159C125.371 20.8828 126.719 19.7161 128.63 19.7161C129.075 19.7161 129.825 19.7954 130.036 19.8633V17.4619C129.766 17.3939 129.286 17.36 128.911 17.36C127.247 17.36 125.829 18.2435 125.465 19.4555H125.278V17.5639H122.852V29.8995Z" fill="black"/>
<path d="M136.292 19.3989C138.156 19.3989 139.375 20.6563 139.433 22.5932H132.987C133.128 20.6676 134.429 19.3989 136.292 19.3989ZM139.422 26.5692C138.953 27.532 137.91 28.0644 136.386 28.0644C134.37 28.0644 133.069 26.6938 132.987 24.5302V24.3943H142V23.5448C142 19.6708 139.855 17.326 136.304 17.326C132.706 17.326 130.421 19.8293 130.421 23.7713C130.421 27.7133 132.659 30.1373 136.316 30.1373C139.234 30.1373 141.273 28.778 141.848 26.5692H139.422Z" fill="black"/>
<path d="M85.9387 25.3441C86.133 28.3732 88.7447 30.3104 92.6318 30.3104C96.7862 30.3104 99.3857 28.2793 99.3857 25.0389C99.3857 22.4912 97.9037 21.0823 94.3081 20.2722L92.3767 19.8143C90.093 19.2977 89.1698 18.605 89.1698 17.3957C89.1698 15.8695 90.6032 14.8715 92.7533 14.8715C94.794 14.8715 96.2031 15.846 96.4582 17.4075H99.1063C98.9484 14.5545 96.3489 12.5469 92.7897 12.5469C88.9633 12.5469 86.4124 14.5545 86.4124 17.5719C86.4124 20.0609 87.8579 21.5402 91.0284 22.2563L93.2878 22.7847C95.6079 23.313 96.6283 24.0879 96.6283 25.3793C96.6283 26.8821 95.0248 27.974 92.8383 27.974C90.4939 27.974 88.8662 26.9526 88.6354 25.3441H85.9387Z" fill="black"/>
<path d="M59.8365 17.36C58.102 17.36 56.6018 18.1982 55.8283 19.6028H55.6408V17.5639H53.2148V34H55.7345V28.0304H55.9338C56.6018 29.3331 58.0434 30.1034 59.8599 30.1034C63.0829 30.1034 65.1339 27.6453 65.1339 23.726C65.1339 19.8067 63.0829 17.36 59.8365 17.36ZM59.1216 27.9172C57.012 27.9172 55.6877 26.3087 55.6877 23.7373C55.6877 21.1547 57.012 19.5462 59.1333 19.5462C61.2663 19.5462 62.5438 21.1207 62.5438 23.726C62.5438 26.3426 61.2663 27.9172 59.1216 27.9172Z" fill="black"/>
<path d="M73.9509 17.36C72.2164 17.36 70.7162 18.1982 69.9427 19.6028H69.7552V17.5639H67.3292V34H69.849V28.0304H70.0482C70.7162 29.3331 72.1578 30.1034 73.9744 30.1034C77.1973 30.1034 79.2483 27.6453 79.2483 23.726C79.2483 19.8067 77.1973 17.36 73.9509 17.36ZM73.236 27.9172C71.1264 27.9172 69.8021 26.3087 69.8021 23.7373C69.8021 21.1547 71.1264 19.5462 73.2477 19.5462C75.3807 19.5462 76.6582 21.1207 76.6582 23.726C76.6582 26.3426 75.3807 27.9172 73.236 27.9172Z" fill="black"/>
<path d="M48.6939 29.8995H51.5849L45.2562 12.9578H42.3287L36 29.8995H38.7939L40.4095 25.4028H47.0905L48.6939 29.8995ZM43.6528 16.0338H43.8593L46.3981 23.1956H41.1019L43.6528 16.0338Z" fill="black"/>
</svg>
