<svg width="9" height="16" viewBox="0 0 9 16" fill="none" xmlns="http://www.w3.org/2000/svg">
<path d="M0.475099 15.1291C0.671004 15.2977 0.932909 15.3891 1.20324 15.3831C1.47358 15.3771 1.73022 15.2742 1.91675 15.0971L8.71834 8.63688C8.89918 8.46524 9.00006 8.23721 9.00006 8.00008C9.00006 7.76296 8.89918 7.53493 8.71834 7.36329L1.91811 0.90307C1.73162 0.725697 1.4749 0.622615 1.20441 0.616499C0.93392 0.610384 0.671824 0.701737 0.47578 0.870462C0.279736 1.03919 0.165802 1.27146 0.159043 1.51619C0.152284 1.76092 0.253253 1.99805 0.439738 2.17543L6.57218 8.0007L0.438378 13.826C0.252149 14.0034 0.151404 14.2404 0.15829 14.485C0.165176 14.7296 0.279129 14.9617 0.475099 15.1303V15.1291Z" fill="#17A2FF"/>
</svg>
