<svg width="145" height="34" viewBox="0 0 145 34" fill="none" xmlns="http://www.w3.org/2000/svg">
<g filter="url(#filter0_ii)">
<path d="M0.561464 1.49402C0.208579 1.87721 -5.18105e-07 2.47191 -5.18105e-07 3.24203V30.7572C-5.18105e-07 31.5286 0.208579 32.122 0.561464 32.5052L0.6512 32.5948L15.6749 17.1813V16.9996V16.818L0.6512 1.4032L0.561464 1.49402Z" fill="url(#paint0_linear)"/>
<path d="M20.6819 22.3207L15.6748 17.1812V16.9996V16.818L20.6831 11.6797L20.7958 11.7456L26.7294 15.2043C28.4235 16.1922 28.4235 17.8083 26.7294 18.7974L20.7958 22.2561L20.6819 22.3207Z" fill="url(#paint1_linear)"/>
<g filter="url(#filter1_i)">
<path d="M20.7958 22.2548L15.6736 16.9996L0.561372 32.5052C1.1192 33.1124 2.04203 33.187 3.08128 32.5824L20.7958 22.2548Z" fill="url(#paint2_linear)"/>
</g>
<path d="M20.7958 11.7444L3.08128 1.41812C2.04203 0.81223 1.1192 0.888122 0.561372 1.49526L15.6748 17.0009L20.7958 11.7444Z" fill="url(#paint3_linear)"/>
</g>
<path d="M45.6562 4.21167C45.6562 5.25649 45.3432 6.08812 44.7159 6.70903C44.004 7.44714 43.0751 7.8162 41.9341 7.8162C40.8411 7.8162 39.9109 7.44215 39.1473 6.69407C38.3824 5.94473 38 5.01711 38 3.90994C38 2.80152 38.3824 1.8739 39.1473 1.12581C39.9109 0.376478 40.8411 0.00243618 41.9341 0.00243618C42.4768 0.00243618 42.9956 0.107168 43.4878 0.315385C43.9813 0.524849 44.3764 0.802888 44.6717 1.15075L44.0066 1.80906C43.5055 1.21683 42.8151 0.921335 41.9329 0.921335C41.1352 0.921335 40.446 1.19813 39.8642 1.75171C39.2823 2.30529 38.992 3.0247 38.992 3.90869C38.992 4.79268 39.2823 5.51209 39.8642 6.06567C40.446 6.61926 41.1352 6.89605 41.9329 6.89605C42.7785 6.89605 43.484 6.61801 44.0482 6.06069C44.4142 5.69786 44.6263 5.19291 44.6831 4.54581H41.9329V3.64686H45.6019C45.6398 3.84261 45.6562 4.03088 45.6562 4.21167Z" fill="black"/>
<path d="M51.4748 1.08723H48.0266V3.45866H51.1366V4.35762H48.0266V6.72905H51.4748V7.64919H47.0535V0.168332H51.4748V1.08723Z" fill="black"/>
<path d="M55.5779 7.64919H54.6048V1.08723H52.4895V0.168332H57.6933V1.08723H55.5779V7.64919Z" fill="black"/>
<path d="M61.4582 7.64919V0.168332H62.4314V7.64919H61.4582Z" fill="black"/>
<path d="M66.7469 7.64919H65.7737V1.08723H63.6584V0.168332H68.8622V1.08723H66.7469V7.64919Z" fill="black"/>
<path d="M78.713 6.6829C77.9683 7.43847 77.0432 7.81625 75.9363 7.81625C74.8294 7.81625 73.9042 7.43847 73.1608 6.6829C72.4161 5.92734 72.0451 5.0022 72.0451 3.90875C72.0451 2.8153 72.4161 1.89016 73.1608 1.1346C73.9042 0.37903 74.8294 0 75.9363 0C77.0369 0 77.9608 0.380277 78.708 1.13958C79.4552 1.89889 79.8288 2.82153 79.8288 3.90875C79.8288 5.0022 79.4564 5.92734 78.713 6.6829ZM73.879 6.05576C74.4394 6.61682 75.1247 6.89611 75.9363 6.89611C76.7478 6.89611 77.4345 6.61558 77.9936 6.05576C78.554 5.49469 78.8354 4.77902 78.8354 3.90875C78.8354 3.03848 78.554 2.32281 77.9936 1.76174C77.4345 1.20068 76.7478 0.921393 75.9363 0.921393C75.1247 0.921393 74.4394 1.20193 73.879 1.76174C73.3198 2.32281 73.0384 3.03848 73.0384 3.90875C73.0384 4.77902 73.3198 5.49469 73.879 6.05576Z" fill="black"/>
<path d="M81.1944 7.64919V0.168332H82.3783L86.0588 5.9872H86.1004L86.0588 4.54588V0.168332H87.0319V7.64919H86.0158L82.165 1.54731H82.1234L82.165 2.98862V7.64919H81.1944Z" fill="black"/>
<path d="M72.1967 18.6318C69.2281 18.6318 66.8086 20.8624 66.8086 23.9345C66.8086 26.9879 69.2281 29.2372 72.1967 29.2372C75.1665 29.2372 77.5861 26.9879 77.5861 23.9345C77.5848 20.8624 75.1653 18.6318 72.1967 18.6318ZM72.1967 27.15C70.5698 27.15 69.1675 25.8247 69.1675 23.9358C69.1675 22.0269 70.571 20.7215 72.1967 20.7215C73.8236 20.7215 75.2258 22.0269 75.2258 23.9358C75.2258 25.8234 73.8236 27.15 72.1967 27.15ZM60.441 18.6318C57.4724 18.6318 55.0529 20.8624 55.0529 23.9345C55.0529 26.9879 57.4724 29.2372 60.441 29.2372C63.4109 29.2372 65.8304 26.9879 65.8304 23.9345C65.8304 20.8624 63.4109 18.6318 60.441 18.6318ZM60.441 27.15C58.8141 27.15 57.4119 25.8247 57.4119 23.9358C57.4119 22.0269 58.8154 20.7215 60.441 20.7215C62.0679 20.7215 63.4702 22.0269 63.4702 23.9358C63.4714 25.8234 62.0679 27.15 60.441 27.15ZM46.4589 22.5094H51.9089C51.7461 23.7749 51.3195 24.6988 50.6682 25.3409C49.8756 26.1239 48.6349 26.9879 46.4589 26.9879C43.1041 26.9879 40.4814 24.316 40.4814 21.002C40.4814 17.688 43.1041 15.0161 46.4589 15.0161C48.2689 15.0161 49.5903 15.7193 50.566 16.6232L52.1727 15.036C50.8096 13.7506 49.0009 12.7668 46.4589 12.7668C41.8634 12.7668 38 16.4624 38 21.002C38 25.5416 41.8634 29.2372 46.4589 29.2372C48.9391 29.2372 50.8108 28.433 52.2737 26.9268C53.7781 25.4406 54.2464 23.351 54.2464 21.6641C54.2464 21.1429 54.206 20.6604 54.124 20.2589H46.4589V22.5094ZM103.644 22.0069C103.198 20.8225 101.834 18.6318 99.0489 18.6318C96.2836 18.6318 93.9852 20.7813 93.9852 23.9345C93.9852 26.9069 96.2634 29.2372 99.3127 29.2372C101.773 29.2372 103.196 27.751 103.787 26.887L101.957 25.6813C101.347 26.5653 100.513 27.1475 99.3127 27.1475C98.1137 27.1475 97.2592 26.6052 96.7102 25.5404L103.888 22.6079L103.644 22.0069ZM96.3239 23.7749C96.2634 21.7252 97.9307 20.6816 99.131 20.6816C100.066 20.6816 100.859 21.1441 101.124 21.8062L96.3239 23.7749ZM90.489 28.9168H92.8467V13.3304H90.489V28.9168ZM86.5435 19.8175C86.0147 19.1941 84.9974 18.6318 83.7176 18.6318C81.033 18.6318 78.5731 20.9621 78.5731 23.9557C78.5731 26.9281 81.033 29.2384 83.7176 29.2384C84.9987 29.2384 86.0147 28.6761 86.5435 28.034H86.6243V28.7971C86.6243 30.8256 85.5262 31.9104 83.758 31.9104C82.3141 31.9104 81.4192 30.8867 81.0532 30.0227L78.9997 30.8668C79.5891 32.2719 81.1542 34 83.758 34C86.5233 34 88.8621 32.3929 88.8621 28.4754V18.9547H86.6256V19.8175H86.5435ZM83.9208 27.15C82.2939 27.15 80.932 25.8035 80.932 23.9557C80.932 22.0867 82.2939 20.7215 83.9208 20.7215C85.5262 20.7215 86.7871 22.0867 86.7871 23.9557C86.7871 25.8035 85.5262 27.15 83.9208 27.15ZM114.693 13.3304H109.05V28.9168H111.404V23.0119H114.692C117.302 23.0119 119.869 21.1454 119.869 18.1717C119.869 15.1981 117.303 13.3304 114.693 13.3304ZM114.754 20.8424H111.404V15.4998H114.754C116.515 15.4998 117.514 16.9399 117.514 18.1717C117.514 19.3787 116.515 20.8424 114.754 20.8424ZM129.309 18.6044C127.604 18.6044 125.838 19.3462 125.107 20.9908L127.197 21.8523C127.644 20.9908 128.477 20.709 129.349 20.709C130.567 20.709 131.805 21.4309 131.826 22.7139V22.8747C131.399 22.6341 130.485 22.2738 129.37 22.2738C127.117 22.2738 124.822 23.4969 124.822 25.7823C124.822 27.8682 126.67 29.211 128.74 29.211C130.322 29.211 131.196 28.5091 131.744 27.6862H131.824V28.8893H134.099V22.9134C134.1 20.1479 132.007 18.6044 129.309 18.6044ZM129.024 27.1463C128.254 27.1463 127.177 26.7648 127.177 25.8222C127.177 24.619 128.518 24.1577 129.675 24.1577C130.709 24.1577 131.197 24.3784 131.826 24.6789C131.643 26.1239 130.384 27.1463 129.024 27.1463ZM142.381 18.9448L139.681 25.7025H139.601L136.799 18.9448H134.262L138.463 28.3894L136.068 33.6434H138.524L145 18.9448H142.381ZM121.169 28.9168H123.523V13.3304H121.169V28.9168Z" fill="black"/>
<defs>
<filter id="filter0_ii" x="0" y="1" width="28" height="32" filterUnits="userSpaceOnUse" color-interpolation-filters="sRGB">
<feFlood flood-opacity="0" result="BackgroundImageFix"/>
<feBlend mode="normal" in="SourceGraphic" in2="BackgroundImageFix" result="shape"/>
<feColorMatrix in="SourceAlpha" type="matrix" values="0 0 0 0 0 0 0 0 0 0 0 0 0 0 0 0 0 0 127 0" result="hardAlpha"/>
<feOffset dy="-0.159375"/>
<feComposite in2="hardAlpha" operator="arithmetic" k2="-1" k3="1"/>
<feColorMatrix type="matrix" values="0 0 0 0 0 0 0 0 0 0 0 0 0 0 0 0 0 0 0.12 0"/>
<feBlend mode="normal" in2="shape" result="effect1_innerShadow"/>
<feColorMatrix in="SourceAlpha" type="matrix" values="0 0 0 0 0 0 0 0 0 0 0 0 0 0 0 0 0 0 127 0" result="hardAlpha"/>
<feOffset dy="0.159375"/>
<feComposite in2="hardAlpha" operator="arithmetic" k2="-1" k3="1"/>
<feColorMatrix type="matrix" values="0 0 0 0 1 0 0 0 0 1 0 0 0 0 1 0 0 0 0.25 0"/>
<feBlend mode="normal" in2="effect1_innerShadow" result="effect2_innerShadow"/>
</filter>
<filter id="filter1_i" x="0.561371" y="16.9996" width="20.2345" height="16.0004" filterUnits="userSpaceOnUse" color-interpolation-filters="sRGB">
<feFlood flood-opacity="0" result="BackgroundImageFix"/>
<feBlend mode="normal" in="SourceGraphic" in2="BackgroundImageFix" result="shape"/>
<feColorMatrix in="SourceAlpha" type="matrix" values="0 0 0 0 0 0 0 0 0 0 0 0 0 0 0 0 0 0 127 0" result="hardAlpha"/>
<feOffset dy="-0.159375"/>
<feComposite in2="hardAlpha" operator="arithmetic" k2="-1" k3="1"/>
<feColorMatrix type="matrix" values="0 0 0 0 0 0 0 0 0 0 0 0 0 0 0 0 0 0 0.08 0"/>
<feBlend mode="normal" in2="shape" result="effect1_innerShadow"/>
</filter>
<linearGradient id="paint0_linear" x1="14.3431" y1="2.9509" x2="-6.52904" y2="23.2951" gradientUnits="userSpaceOnUse">
<stop stop-color="#00A0FF"/>
<stop offset="0.0066" stop-color="#00A1FF"/>
<stop offset="0.2601" stop-color="#00BEFF"/>
<stop offset="0.5122" stop-color="#00D2FF"/>
<stop offset="0.7604" stop-color="#00DFFF"/>
<stop offset="1" stop-color="#00E3FF"/>
</linearGradient>
<linearGradient id="paint1_linear" x1="28.9346" y1="16.9996" x2="-0.40682" y2="16.9996" gradientUnits="userSpaceOnUse">
<stop stop-color="#FFE000"/>
<stop offset="0.4087" stop-color="#FFBD00"/>
<stop offset="0.7754" stop-color="#FFA500"/>
<stop offset="1" stop-color="#FF9C00"/>
</linearGradient>
<linearGradient id="paint2_linear" x1="18.0141" y1="19.8535" x2="-10.2912" y2="47.4429" gradientUnits="userSpaceOnUse">
<stop stop-color="#FF3A44"/>
<stop offset="1" stop-color="#C31162"/>
</linearGradient>
<linearGradient id="paint3_linear" x1="-3.24469" y1="-7.66429" x2="9.3944" y2="4.65511" gradientUnits="userSpaceOnUse">
<stop stop-color="#32A071"/>
<stop offset="0.0685" stop-color="#2DA771"/>
<stop offset="0.4762" stop-color="#15CF74"/>
<stop offset="0.8009" stop-color="#06E775"/>
<stop offset="1" stop-color="#00F076"/>
</linearGradient>
</defs>
</svg>
