<svg width="108" height="30" viewBox="0 0 108 30" fill="none" xmlns="http://www.w3.org/2000/svg">
<path d="M15.7635 20.4545C15.6885 20.4546 15.6149 20.4327 15.5511 20.3915C15.4872 20.3502 15.4356 20.2912 15.4019 20.221L13.5548 16.3695L12.8134 17.9179C12.7798 17.9881 12.7282 18.0472 12.6643 18.0884C12.6004 18.1297 12.5269 18.1515 12.4518 18.1515H9.96377C9.86103 18.1529 9.76145 18.1143 9.68445 18.043C9.60745 17.9718 9.55853 17.8731 9.54724 17.7662C9.54207 17.7074 9.54869 17.6482 9.56669 17.5923C9.58469 17.5363 9.61365 17.4849 9.65173 17.4414C9.68981 17.3979 9.73616 17.3632 9.78781 17.3395C9.83946 17.3159 9.89526 17.3038 9.95163 17.304H12.2018L13.1932 15.2345C13.2268 15.1641 13.2784 15.1048 13.3423 15.0634C13.4063 15.0219 13.48 15 13.5552 15C13.6304 15 13.7041 15.0219 13.768 15.0634C13.8319 15.1048 13.8836 15.1641 13.9171 15.2345L15.7639 19.086L16.5053 17.5376C16.5389 17.4674 16.5905 17.4084 16.6543 17.3672C16.7181 17.3259 16.7916 17.3041 16.8665 17.304H19.3536C19.4563 17.3023 19.556 17.3407 19.6332 17.4117C19.7104 17.4828 19.7596 17.5813 19.7711 17.6882C19.7763 17.747 19.7696 17.8062 19.7516 17.8621C19.7336 17.918 19.7046 17.9693 19.6665 18.0128C19.6284 18.0563 19.5821 18.0909 19.5305 18.1146C19.4788 18.1382 19.4231 18.1503 19.3667 18.1501H17.1176L16.1251 20.221C16.0915 20.2912 16.0399 20.3502 15.976 20.3915C15.9121 20.4327 15.8386 20.4546 15.7635 20.4545Z" fill="white" stroke="white" stroke-width="0.319149" stroke-miterlimit="10"/>
<path d="M20.5189 23.1818H8.79947C7.79188 23.1818 6.91198 22.6493 6.44537 21.7574C6.21654 21.33 6.11129 20.8474 6.14139 20.3637C6.17149 19.88 6.33576 19.4142 6.61582 19.0183L12.0071 11.2412V8.45251C11.6809 8.36406 11.3932 8.17017 11.189 7.90116C10.9849 7.63214 10.8758 7.30317 10.8788 6.96568C10.8867 6.12503 11.5909 5.45454 12.433 5.45454H16.8851C17.7272 5.45454 18.4317 6.12339 18.4393 6.96568C18.4423 7.30317 18.3332 7.63214 18.129 7.90116C17.9249 8.17017 17.6372 8.36406 17.3109 8.45251V11.2412L22.7023 19.0183C22.9823 19.4142 23.1466 19.88 23.1767 20.3637C23.2069 20.8474 23.1018 21.3299 22.873 21.7574C22.4064 22.6493 21.5262 23.1818 20.5189 23.1818ZM12.3583 6.24526C12.248 6.24535 12.1391 6.26997 12.0395 6.31731C11.9399 6.36466 11.8521 6.43356 11.7826 6.519C11.713 6.60444 11.6634 6.70427 11.6373 6.81125C11.6112 6.91824 11.6093 7.02968 11.6317 7.13749C11.7011 7.48308 12.016 7.72519 12.3691 7.72519H12.4817C12.5653 7.72519 12.6454 7.75835 12.7046 7.81737C12.7637 7.87639 12.7969 7.95643 12.7969 8.0399V11.4968L7.28513 19.4467C6.87874 20.0327 6.8228 20.8011 7.16535 21.4266C7.32369 21.7215 7.55993 21.9675 7.84842 22.1378C8.13691 22.3081 8.46663 22.3963 8.80177 22.3927H20.4814C21.1991 22.3927 21.8678 21.9985 22.1873 21.3576C22.3385 21.0606 22.4056 20.7279 22.3815 20.3956C22.3573 20.0632 22.2427 19.7438 22.0501 19.4716L16.5202 11.4968V8.0399C16.5202 7.95643 16.5534 7.87639 16.6125 7.81737C16.6717 7.75835 16.7518 7.72519 16.8354 7.72519H16.9078C17.2609 7.72519 17.5758 7.48308 17.6453 7.13749C17.6677 7.02971 17.6658 6.91829 17.6397 6.81133C17.6136 6.70438 17.564 6.60456 17.4945 6.51912C17.4249 6.43369 17.3372 6.36479 17.2377 6.31742C17.1381 6.27005 17.0293 6.2454 16.919 6.24526H12.3583Z" fill="white" stroke="white" stroke-width="0.319149" stroke-miterlimit="10"/>
<path d="M10.6368 1.36117C10.5223 1.00335 10.1388 0.804584 9.78652 0.93516C7.76826 1.68327 5.93198 2.85805 4.4046 4.38221C2.71651 6.06674 1.45439 8.12949 0.722951 10.3994C-0.00849194 12.6692 -0.188179 15.0808 0.198794 17.434C0.585768 19.7872 1.52825 22.0142 2.94805 23.9303C4.36786 25.8464 6.22407 27.3964 8.36271 28.4516C10.5013 29.5069 12.8608 30.037 15.2453 29.998C17.6297 29.959 19.9706 29.352 22.0736 28.2274C23.9763 27.2099 25.6348 25.7951 26.938 24.082C27.1655 23.783 27.087 23.3583 26.778 23.1446C26.469 22.9309 26.0466 23.0094 25.8178 23.3073C24.6385 24.843 23.144 26.1122 21.432 27.0277C19.5197 28.0503 17.3912 28.6022 15.223 28.6377C13.0548 28.6731 10.9094 28.1911 8.96471 27.2316C7.02005 26.272 5.3322 24.8627 4.04116 23.1203C2.75013 21.378 1.89314 19.353 1.54126 17.2132C1.18939 15.0735 1.35278 12.8806 2.01788 10.8166C2.68298 8.75265 3.83062 6.87699 5.3656 5.34524C6.73985 3.97389 8.38911 2.91359 10.2016 2.23242C10.5532 2.10025 10.7513 1.719 10.6368 1.36117Z" fill="white"/>
<path d="M36.382 20.716C34.318 20.716 32.692 20.08 31.504 18.808L32.674 17.188C33.706 18.292 34.972 18.844 36.472 18.844C37.276 18.844 37.876 18.682 38.272 18.358C38.68 18.034 38.884 17.65 38.884 17.206C38.884 16.75 38.644 16.39 38.164 16.126C37.684 15.85 37.102 15.634 36.418 15.478C35.734 15.322 35.044 15.136 34.348 14.92C33.664 14.704 33.082 14.338 32.602 13.822C32.122 13.306 31.882 12.64 31.882 11.824C31.882 10.816 32.284 9.982 33.088 9.322C33.904 8.65 34.96 8.314 36.256 8.314C38.104 8.314 39.604 8.872 40.756 9.988L39.55 11.554C38.638 10.642 37.48 10.186 36.076 10.186C35.452 10.186 34.954 10.324 34.582 10.6C34.222 10.864 34.042 11.224 34.042 11.68C34.042 11.98 34.168 12.232 34.42 12.436C34.684 12.64 35.02 12.808 35.428 12.94C35.836 13.06 36.286 13.18 36.778 13.3C37.282 13.42 37.78 13.57 38.272 13.75C38.776 13.918 39.232 14.128 39.64 14.38C40.048 14.632 40.378 14.98 40.63 15.424C40.894 15.868 41.026 16.396 41.026 17.008C41.026 18.088 40.636 18.976 39.856 19.672C39.076 20.368 37.918 20.716 36.382 20.716ZM50.6695 20.5H48.7795V15.064C48.7795 13.864 48.1975 13.264 47.0335 13.264C46.5775 13.264 46.1515 13.378 45.7555 13.606C45.3595 13.834 45.0415 14.11 44.8015 14.434V20.5H42.9115V11.806H44.8015V12.994C45.1255 12.61 45.5575 12.28 46.0975 12.004C46.6375 11.728 47.2255 11.59 47.8615 11.59C48.7855 11.59 49.4815 11.83 49.9495 12.31C50.4295 12.79 50.6695 13.48 50.6695 14.38V20.5ZM57.0484 20.716C55.7044 20.716 54.6244 20.278 53.8084 19.402C52.9924 18.514 52.5844 17.428 52.5844 16.144C52.5844 14.86 52.9924 13.78 53.8084 12.904C54.6244 12.028 55.7044 11.59 57.0484 11.59C58.4044 11.59 59.4904 12.028 60.3064 12.904C61.1224 13.78 61.5304 14.86 61.5304 16.144C61.5304 17.44 61.1224 18.526 60.3064 19.402C59.4904 20.278 58.4044 20.716 57.0484 20.716ZM57.0484 19.042C57.8284 19.042 58.4404 18.766 58.8844 18.214C59.3404 17.65 59.5684 16.96 59.5684 16.144C59.5684 15.34 59.3404 14.662 58.8844 14.11C58.4404 13.546 57.8284 13.264 57.0484 13.264C56.2804 13.264 55.6684 13.546 55.2124 14.11C54.7684 14.662 54.5464 15.34 54.5464 16.144C54.5464 16.96 54.7684 17.65 55.2124 18.214C55.6684 18.766 56.2804 19.042 57.0484 19.042ZM65.3328 20.5H63.4428V11.806H65.3328V13.084C65.6688 12.652 66.0888 12.298 66.5928 12.022C67.0968 11.746 67.6188 11.608 68.1588 11.608V13.48C67.9908 13.444 67.7928 13.426 67.5648 13.426C67.1688 13.426 66.7428 13.546 66.2868 13.786C65.8428 14.014 65.5248 14.278 65.3328 14.578V20.5ZM73.697 20.716C72.377 20.716 71.285 20.296 70.421 19.456C69.569 18.604 69.143 17.5 69.143 16.144C69.143 14.872 69.557 13.798 70.385 12.922C71.225 12.034 72.281 11.59 73.553 11.59C74.837 11.59 75.869 12.034 76.649 12.922C77.441 13.81 77.837 14.944 77.837 16.324V16.774H71.123C71.195 17.458 71.477 18.028 71.969 18.484C72.461 18.94 73.103 19.168 73.895 19.168C74.339 19.168 74.783 19.084 75.227 18.916C75.683 18.748 76.061 18.514 76.361 18.214L77.225 19.456C76.349 20.296 75.173 20.716 73.697 20.716ZM76.001 15.442C75.977 14.842 75.755 14.308 75.335 13.84C74.927 13.372 74.333 13.138 73.553 13.138C72.809 13.138 72.227 13.372 71.807 13.84C71.387 14.296 71.153 14.83 71.105 15.442H76.001ZM87.1545 20.5H79.7565V8.494H81.8625V18.646H87.1545V20.5ZM96.0256 20.5H94.1356V19.564C93.4636 20.332 92.5276 20.716 91.3276 20.716C90.5356 20.716 89.8336 20.464 89.2216 19.96C88.6096 19.444 88.3036 18.736 88.3036 17.836C88.3036 16.912 88.6036 16.21 89.2036 15.73C89.8156 15.25 90.5236 15.01 91.3276 15.01C92.5636 15.01 93.4996 15.382 94.1356 16.126V14.83C94.1356 14.326 93.9496 13.93 93.5776 13.642C93.2056 13.354 92.7136 13.21 92.1016 13.21C91.1296 13.21 90.2716 13.576 89.5276 14.308L88.7536 12.994C89.7376 12.058 90.9556 11.59 92.4076 11.59C93.4756 11.59 94.3456 11.842 95.0176 12.346C95.6896 12.85 96.0256 13.648 96.0256 14.74V20.5ZM92.0656 19.42C93.0136 19.42 93.7036 19.12 94.1356 18.52V17.206C93.7036 16.606 93.0136 16.306 92.0656 16.306C91.5256 16.306 91.0816 16.45 90.7336 16.738C90.3856 17.026 90.2116 17.404 90.2116 17.872C90.2116 18.34 90.3856 18.718 90.7336 19.006C91.0816 19.282 91.5256 19.42 92.0656 19.42ZM100.366 17.89C100.57 18.214 100.882 18.49 101.302 18.718C101.734 18.934 102.166 19.042 102.598 19.042C103.342 19.042 103.936 18.778 104.38 18.25C104.836 17.71 105.064 17.014 105.064 16.162C105.064 15.31 104.836 14.614 104.38 14.074C103.936 13.534 103.342 13.264 102.598 13.264C102.166 13.264 101.74 13.378 101.32 13.606C100.9 13.834 100.582 14.116 100.366 14.452V17.89ZM100.366 20.5H98.476V8.494H100.366V13.012C101.074 12.064 102.004 11.59 103.156 11.59C104.284 11.59 105.208 12.01 105.928 12.85C106.648 13.678 107.008 14.782 107.008 16.162C107.008 17.566 106.648 18.676 105.928 19.492C105.208 20.308 104.284 20.716 103.156 20.716C102.016 20.716 101.086 20.248 100.366 19.312V20.5Z" fill="white"/>
</svg>
