<svg width="461" height="90" viewBox="0 0 461 90" fill="none" xmlns="http://www.w3.org/2000/svg">
<path d="M70 0H20C8.95431 0 0 8.9543 0 20V70C0 81.0457 8.9543 90 20 90H70C81.0457 90 90 81.0457 90 70V20C90 8.9543 81.0457 0 70 0Z" fill="url(#paint0_linear)"/>
<path d="M72.9399 41.2484C70.8888 36.3248 67.5216 32.0472 63.1999 28.8749C59.9749 26.5536 49.0349 20.2678 47.4249 27.39C46.6049 31.008 48.1149 34.6706 49.9649 37.6996C50.9999 39.422 51.9999 41.3721 51.4999 43.4756C50.5449 47.2371 46.2899 49.1427 42.7149 47.9301C39.8599 46.9748 37.8549 43.8963 38.5249 40.9514C38.9299 39.1597 40.1199 37.7491 40.9849 36.1703C42.4249 33.5322 43.7849 28.9194 42.1299 26.0735C38.8449 20.4064 28.2399 27.593 25.1299 30.1815C21.2836 33.4387 18.3551 37.6267 16.6299 42.3372C14.8149 47.153 13.6899 52.6567 16.3099 57.3884C16.4199 57.564 16.5937 57.6911 16.7956 57.7436C16.9974 57.7961 17.212 57.7699 17.3949 57.6705C22.0849 55.5373 27.1499 53.899 32.3549 54.9137C35.2957 55.5423 38.0705 56.7748 40.4999 58.5317C41.8449 59.4721 43.2549 60.5956 44.9999 60.6104C46.7449 60.6253 48.1499 59.4721 49.4999 58.5317C51.8314 56.8472 54.4802 55.6422 57.2899 54.9879C62.6099 53.8248 67.7899 55.4829 72.6149 57.6655C72.7976 57.7662 73.0125 57.7931 73.2147 57.7405C73.417 57.6879 73.5908 57.56 73.6999 57.3834C76.4999 52.3103 75.0249 46.3166 72.9399 41.2484Z" fill="url(#paint1_linear)"/>
<path d="M142.725 68.9C133.825 68.9 126.775 66.25 121.575 60.95L127.35 52.85C131.65 57.35 136.95 59.6 143.25 59.6C146 59.6 148.125 59.075 149.625 58.025C151.175 56.925 151.95 55.6 151.95 54.05C151.95 52.7 151.225 51.575 149.775 50.675C148.375 49.775 146.6 49.125 144.45 48.725C142.35 48.325 140.05 47.75 137.55 47C135.05 46.25 132.725 45.4 130.575 44.45C128.475 43.5 126.7 42 125.25 39.95C123.85 37.9 123.15 35.4 123.15 32.45C123.15 28.15 124.875 24.55 128.325 21.65C131.775 18.7 136.375 17.225 142.125 17.225C150.075 17.225 156.575 19.55 161.625 24.2L155.7 32C151.75 28.35 146.9 26.525 141.15 26.525C138.9 26.525 137.15 26.975 135.9 27.875C134.65 28.775 134.025 30 134.025 31.55C134.025 32.75 134.725 33.775 136.125 34.625C137.575 35.425 139.35 36.025 141.45 36.425C143.6 36.825 145.9 37.425 148.35 38.225C150.85 38.975 153.15 39.85 155.25 40.85C157.4 41.8 159.175 43.325 160.575 45.425C162.025 47.475 162.75 49.95 162.75 52.85C162.75 57.65 161.025 61.525 157.575 64.475C154.175 67.425 149.225 68.9 142.725 68.9ZM201.421 68H191.896V46.1C191.896 41.6 189.671 39.35 185.221 39.35C181.771 39.35 179.021 40.775 176.971 43.625V68H167.446V31.775H176.971V36.5C180.121 32.75 184.346 30.875 189.646 30.875C193.546 30.875 196.471 31.9 198.421 33.95C200.421 36 201.421 38.825 201.421 42.425V68ZM239.378 63.425C235.878 67.075 231.228 68.9 225.428 68.9C219.628 68.9 214.978 67.075 211.478 63.425C208.028 59.725 206.303 55.2 206.303 49.85C206.303 44.5 208.028 40 211.478 36.35C214.978 32.7 219.628 30.875 225.428 30.875C231.228 30.875 235.878 32.7 239.378 36.35C242.878 40 244.628 44.5 244.628 49.85C244.628 55.2 242.878 59.725 239.378 63.425ZM218.678 57.425C220.328 59.425 222.578 60.425 225.428 60.425C228.278 60.425 230.528 59.425 232.178 57.425C233.878 55.375 234.728 52.85 234.728 49.85C234.728 46.9 233.878 44.425 232.178 42.425C230.528 40.375 228.278 39.35 225.428 39.35C222.578 39.35 220.328 40.375 218.678 42.425C217.028 44.425 216.203 46.9 216.203 49.85C216.203 52.85 217.028 55.375 218.678 57.425ZM258.97 68H249.445V31.775H258.97V36.725C260.32 35.025 262.045 33.625 264.145 32.525C266.245 31.425 268.37 30.875 270.52 30.875V40.175C269.87 40.025 268.995 39.95 267.895 39.95C266.295 39.95 264.595 40.35 262.795 41.15C260.995 41.95 259.72 42.925 258.97 44.075V68ZM291.246 68.9C285.646 68.9 281.021 67.15 277.371 63.65C273.721 60.15 271.896 55.55 271.896 49.85C271.896 44.5 273.646 40 277.146 36.35C280.696 32.7 285.196 30.875 290.646 30.875C296.046 30.875 300.421 32.725 303.771 36.425C307.121 40.075 308.796 44.875 308.796 50.825V52.925H281.871C282.171 55.325 283.246 57.325 285.096 58.925C286.946 60.525 289.346 61.325 292.296 61.325C293.896 61.325 295.621 61 297.471 60.35C299.371 59.7 300.871 58.825 301.971 57.725L306.171 63.875C302.521 67.225 297.546 68.9 291.246 68.9ZM299.571 46.475C299.421 44.425 298.596 42.575 297.096 40.925C295.646 39.275 293.496 38.45 290.646 38.45C287.946 38.45 285.846 39.275 284.346 40.925C282.846 42.525 281.971 44.375 281.721 46.475H299.571ZM337.876 68.975C330.376 68.975 324.051 66.575 318.901 61.775C313.801 56.975 311.251 50.725 311.251 43.025C311.251 35.275 313.801 29.025 318.901 24.275C324.051 19.525 330.376 17.15 337.876 17.15C346.976 17.15 353.876 20.875 358.576 28.325L349.726 33.125C348.526 31.225 346.876 29.675 344.776 28.475C342.726 27.225 340.426 26.6 337.876 26.6C333.326 26.6 329.576 28.15 326.626 31.25C323.676 34.35 322.201 38.275 322.201 43.025C322.201 47.775 323.676 51.7 326.626 54.8C329.576 57.9 333.326 59.45 337.876 59.45C339.976 59.45 342.001 59.075 343.951 58.325C345.901 57.575 347.426 56.675 348.526 55.625V49.625H335.326V40.325H359.176V59.525C353.526 65.825 346.426 68.975 337.876 68.975ZM363.881 82.175L365.306 73.625C366.206 74.025 367.206 74.225 368.306 74.225C370.856 74.225 372.531 73.35 373.331 71.6L374.681 68.525L359.981 31.775H370.181L379.631 56.975L389.081 31.775H399.356L382.331 73.925C381.081 77.125 379.331 79.35 377.081 80.6C374.831 81.9 372.006 82.6 368.606 82.7C366.856 82.7 365.281 82.525 363.881 82.175ZM455.883 68H446.283V45.125C446.283 41.275 444.483 39.35 440.883 39.35C439.333 39.35 437.883 39.775 436.533 40.625C435.233 41.475 434.183 42.45 433.383 43.55V68H423.783V45.125C423.783 41.275 421.983 39.35 418.383 39.35C416.883 39.35 415.458 39.775 414.108 40.625C412.758 41.475 411.683 42.475 410.883 43.625V68H401.358V31.775H410.883V36.5C411.783 35.2 413.358 33.95 415.608 32.75C417.858 31.5 420.233 30.875 422.733 30.875C427.983 30.875 431.333 33.075 432.783 37.475C433.933 35.675 435.633 34.125 437.883 32.825C440.183 31.525 442.633 30.875 445.233 30.875C448.633 30.875 451.258 31.8 453.108 33.65C454.958 35.45 455.883 38.175 455.883 41.825V68Z" fill="url(#paint2_linear)"/>
<defs>
<linearGradient id="paint0_linear" x1="45" y1="0" x2="45" y2="90" gradientUnits="userSpaceOnUse">
<stop stop-color="#012128"/>
<stop offset="1" stop-color="#00323C"/>
</linearGradient>
<linearGradient id="paint1_linear" x1="45.0049" y1="59.5117" x2="45.0049" y2="20.7727" gradientUnits="userSpaceOnUse">
<stop stop-color="#01BBE0"/>
<stop offset="1" stop-color="#6ECDE0"/>
</linearGradient>
<linearGradient id="paint2_linear" x1="196.495" y1="80" x2="412.154" y2="80" gradientUnits="userSpaceOnUse">
<stop stop-color="#01BBE0"/>
<stop offset="1" stop-color="#E3F9FE"/>
</linearGradient>
</defs>
</svg>
