<svg width="30" height="30" viewBox="0 0 30 30" fill="none" xmlns="http://www.w3.org/2000/svg">
<g clip-path="url(#clip0)">
<path d="M8.06753 22.7445L6.32506 25.1234C5.79283 25.8498 5.95046 26.8701 6.67684 27.4021C6.96727 27.6149 7.30455 27.7173 7.63901 27.7173C8.141 27.7173 8.63627 27.4862 8.95561 27.0502L12.1095 22.7444H8.06753V22.7445Z" fill="white"/>
<path d="M21.9326 22.7446H17.8906L21.0446 27.0503C21.3639 27.4864 21.8592 27.7175 22.3612 27.7175C22.6955 27.7175 23.033 27.6149 23.3233 27.4022C24.0498 26.8701 24.2073 25.8498 23.6752 25.1235L21.9326 22.7446Z" fill="white"/>
<path d="M29.1848 2.28256H0.815229C0.364868 2.28256 0 2.64752 0 3.09788V20.7065C0 21.1568 0.364868 21.5216 0.815229 21.5216H29.1849C29.6352 21.5216 30.0001 21.1568 30.0001 20.7065V3.09788C30 2.64752 29.6351 2.28256 29.1848 2.28256ZM23.7323 11.1705C23.5118 11.1705 23.2987 11.1383 23.097 11.0793L18.5254 15.0185C18.2856 15.2252 17.9896 15.3271 17.6947 15.3271C17.3587 15.3271 17.0241 15.1949 16.7748 14.9346L12.0488 9.99934L8.53493 12.3124C8.5084 13.5404 7.50194 14.5313 6.26783 14.5313C5.01718 14.5313 3.99976 13.5138 3.99976 12.2632C3.99976 11.0125 5.01727 9.99501 6.26783 9.99501C6.58124 9.99501 6.88007 10.059 7.15193 10.1744L11.5346 7.28931C12.048 6.95132 12.7292 7.02841 13.1541 7.47214L17.7784 12.301L21.4744 9.11639C21.4678 9.04593 21.464 8.97467 21.464 8.90253C21.464 7.65188 22.4816 6.63437 23.7323 6.63437C24.9829 6.63437 26.0003 7.65188 26.0003 8.90253C26.0003 10.1531 24.9828 11.1705 23.7323 11.1705Z" fill="white"/>
</g>
<defs>
<clipPath id="clip0">
<rect width="30" height="30" fill="white"/>
</clipPath>
</defs>
</svg>
