<svg width="30" height="30" viewBox="0 0 30 30" fill="none" xmlns="http://www.w3.org/2000/svg">
<path d="M27.3125 18.9783C25.6337 19.0818 23.4261 20.7592 21.2962 21.7235C18.6862 22.9052 14.6231 21.9552 14.6231 21.9552C15.25 21.6612 17.797 21.0544 18.3092 20.8294C21.036 19.6294 20.8048 17.1287 19.5062 17.1497C17.7905 17.1785 16.7834 17.5997 13.3606 18.0665C10.766 18.4192 7.69719 18.2901 6.22529 18.8523C4.14772 19.6459 0.80188 24.9855 0.80188 24.9855L5.97475 29.9999C5.97475 29.9999 9.17774 26.845 10.7366 26.845C14.2883 26.845 14.4324 26.7966 17.7299 26.6182C19.1319 26.543 19.4244 26.4856 20.2274 26.2152C24.5024 24.7698 29.092 20.9209 29.1765 20.4575C29.3714 19.3854 28.1987 18.9231 27.3125 18.9783Z" fill="white"/>
<path d="M12.4366 12.2086C12.4459 12.515 12.6645 12.7676 12.9532 12.8301C12.6838 12.9111 12.4895 13.1618 12.4895 13.4576C12.4895 13.7178 12.6405 13.9416 12.8606 14.0478C12.6406 14.1541 12.4895 14.3777 12.4895 14.6379C12.4895 15.0008 12.7833 15.2953 13.1451 15.2953H13.5455C13.6698 15.9857 14.2733 16.5093 14.9998 16.5093C15.7258 16.5093 16.3287 15.9857 16.4523 15.2953H16.8537C17.2155 15.2953 17.5099 15.0008 17.5099 14.6379C17.5099 14.3777 17.3574 14.1541 17.1379 14.0478C17.3574 13.9415 17.5099 13.7178 17.5099 13.4576C17.5099 13.1629 17.3161 12.9145 17.0487 12.831C17.3379 12.7684 17.5565 12.5158 17.5653 12.2095C17.6035 10.9677 18.2303 10.0481 18.8365 9.159C19.5619 8.09363 20.3134 6.99158 20.3136 5.04935C20.3135 2.26503 17.93 0 14.9998 0C12.069 0 9.6853 2.26487 9.6853 5.04935C9.6853 6.99055 10.4371 8.09252 11.1641 9.15836C11.7705 10.0468 12.3986 10.9648 12.4366 12.2086ZM14.9995 10.536L14.1845 5.89912C14.1661 5.75904 14.2434 5.65041 14.278 5.61C14.3429 5.53457 14.43 5.48687 14.5004 5.48687C14.5891 5.48687 14.6575 5.55311 14.6905 5.59304C14.7665 5.68503 14.8793 5.73915 14.9995 5.73915C15.1189 5.73915 15.2309 5.68495 15.3077 5.59304C15.3406 5.55311 15.4084 5.48687 15.4973 5.48687C15.5756 5.48687 15.664 5.53291 15.7287 5.60818C15.7698 5.65524 15.8335 5.75603 15.814 5.89849L14.9995 10.536ZM14.9998 1.31305C17.2061 1.31305 19.0003 2.98961 19.0003 5.04935C19.0003 6.58647 18.4216 7.43552 17.7507 8.4211C17.1937 9.23918 16.5178 10.2289 16.3126 11.5335L15.6374 11.5334L16.6031 6.0316C16.6037 6.02875 16.6042 6.02605 16.6045 6.02328C16.6556 5.68559 16.5583 5.34497 16.3363 5.08651C16.1215 4.83566 15.8082 4.68615 15.4972 4.68615C15.3227 4.68615 15.1522 4.73321 14.9995 4.821C14.8451 4.73329 14.6745 4.68615 14.5003 4.68615C14.1923 4.68615 13.8902 4.83257 13.6713 5.08738C13.4453 5.35028 13.344 5.69153 13.3934 6.02233C13.3939 6.02534 13.3945 6.02835 13.3951 6.0316L14.3606 11.533L13.6893 11.5328C13.4844 10.2274 12.8068 9.23664 12.2478 8.41857C11.5781 7.4341 10.9978 6.58504 10.9978 5.04935C10.9977 2.98961 12.7934 1.31305 14.9998 1.31305Z" fill="white"/>
</svg>
