<svg width="30" height="30" viewBox="0 0 30 30" fill="none" xmlns="http://www.w3.org/2000/svg">
<g clip-path="url(#clip0)">
<path d="M28.6363 0H1.36365C0.610547 0 0 0.610547 0 1.36365V23.2018C0 23.9549 0.610547 24.5655 1.36365 24.5655H13.6353V27.2728H9.09041C8.33731 27.2728 7.72676 27.8833 7.72676 28.6364C7.72676 29.3895 8.33731 30.0001 9.09041 30.0001H20.9088C21.6619 30.0001 22.2724 29.3895 22.2724 28.6364C22.2724 27.8833 21.6619 27.2728 20.9088 27.2728H16.3626V24.5654H28.6364C29.3895 24.5654 30.0001 23.9549 30.0001 23.2018V1.36365C30 0.610547 29.3895 0 28.6363 0ZM27.2728 21.8382H2.72725V19.1109H27.2727V21.8382H27.2728ZM27.2728 16.3836H2.72725V2.72725H27.2727V16.3836H27.2728Z" fill="white"/>
<path d="M17.7271 10.9092H15.5647L18.6913 7.78246C19.0813 7.39246 19.198 6.80599 18.987 6.29635C18.7758 5.7867 18.2787 5.45453 17.7271 5.45453H12.2726C11.5195 5.45453 10.9089 6.06508 10.9089 6.81818C10.9089 7.57129 11.5195 8.18183 12.2726 8.18183H14.435L11.3084 11.3086C10.9184 11.6986 10.8018 12.285 11.0128 12.7947C11.2239 13.3042 11.721 13.6365 12.2726 13.6365H17.7271C18.4802 13.6365 19.0908 13.026 19.0908 12.2728C19.0907 11.5197 18.4802 10.9092 17.7271 10.9092Z" fill="white"/>
</g>
<defs>
<clipPath id="clip0">
<rect width="30" height="30" fill="white"/>
</clipPath>
</defs>
</svg>
