<svg width="30" height="30" viewBox="0 0 30 30" fill="none" xmlns="http://www.w3.org/2000/svg">
<g clip-path="url(#clip0)">
<path d="M29.9064 11.4706C29.6813 10.7779 29.0825 10.273 28.3617 10.1683L20.3147 8.99893L16.7159 1.70731C16.3936 1.05412 15.7283 0.64064 15 0.64064C14.2717 0.64064 13.6064 1.05412 13.2841 1.70731L9.68541 8.99893L1.63852 10.1683C0.917687 10.273 0.318864 10.7779 0.0938158 11.4706C-0.131233 12.1633 0.0564629 12.9237 0.57808 13.4322L6.40081 19.1081L5.02626 27.1225C4.90322 27.8403 5.19832 28.5659 5.78748 28.9941C6.37674 29.4222 7.15797 29.4785 7.80277 29.1397L15.0001 25.3557L22.1973 29.1397C22.4772 29.2869 22.783 29.3595 23.0875 29.3595C23.4842 29.3595 23.8792 29.2362 24.2125 28.9941C24.8018 28.5659 25.0969 27.8403 24.9739 27.1225L23.5993 19.1081L29.422 13.4323C29.9437 12.9239 30.1314 12.1634 29.9064 11.4706ZM20.2076 17.0697C19.7565 17.5094 19.5507 18.1427 19.6571 18.7634L20.5463 23.9478L15.8905 21.5001C15.3331 21.2071 14.6673 21.2071 14.1096 21.5001L9.45375 23.9478L10.3429 18.7634C10.4494 18.1427 10.2436 17.5094 9.79257 17.0697L6.02586 13.3979L11.2313 12.6415C11.8546 12.5509 12.3934 12.1595 12.6721 11.5948L15.0001 6.8778L17.3281 11.5948C17.607 12.1596 18.1457 12.551 18.7689 12.6415L23.9744 13.3979L20.2076 17.0697Z" fill="white"/>
</g>
<defs>
<clipPath id="clip0">
<rect width="30" height="30" fill="white"/>
</clipPath>
</defs>
</svg>
