<svg width="30" height="30" viewBox="0 0 30 30" fill="none" xmlns="http://www.w3.org/2000/svg">
<path d="M23.429 5.90927C23.0031 4.72838 22.3771 3.6824 21.5686 2.80049C19.9132 0.994559 17.5809 0 15.0016 0C12.4218 0 10.089 0.994412 8.43291 2.8001C7.62394 3.68206 6.99766 4.72809 6.57148 5.90897C6.1484 7.08127 5.93384 8.35804 5.93384 9.70382C5.93384 13.1169 7.44452 15.404 8.54751 17.0741L8.55104 17.0794C9.36889 18.3141 9.83168 19.051 9.83168 19.8357V20.2761C9.83168 21.1596 10.3997 21.9106 11.1909 22.1841V25.6681C11.1909 26.0467 11.4895 26.3545 11.8639 26.3712C11.8418 26.5206 11.8288 26.673 11.8288 26.8287C11.8288 28.5802 13.2486 30 15.0001 30C16.7515 30 18.1713 28.5802 18.1713 26.8287C18.1713 26.673 18.1583 26.5206 18.1361 26.3712C18.5105 26.3545 18.8091 26.0467 18.8091 25.6681V22.2137C19.1022 22.1138 19.3715 21.9474 19.5935 21.7228C19.9749 21.3371 20.185 20.8142 20.1766 20.2719L20.1687 19.7694C20.1956 19.2308 20.4663 18.819 21.2054 17.8186C21.7853 17.0327 22.5061 16.0559 23.0763 14.7511C23.7424 13.2272 24.0661 11.5762 24.0661 9.70387C24.0661 8.35809 23.8517 7.08142 23.429 5.90927ZM19.5815 16.6188C18.8014 17.6746 18.1854 18.5101 18.1492 19.7471L18.1578 20.3033L14.9141 20.2892L18.2368 13.4476C18.2458 13.4236 18.2389 13.3978 18.2181 13.3782C18.1976 13.358 18.1656 13.3469 18.1316 13.3469H15.5377L17.7482 7.95127C17.7482 7.91098 17.7286 7.87172 17.6537 7.87172C17.6488 7.87172 14.6208 7.87103 14.6159 7.87103C14.5674 7.87103 14.5239 7.89495 14.5108 7.93005L11.763 15.0584C11.7542 15.0826 11.7611 15.1079 11.7816 15.1281C11.8024 15.1478 11.8343 15.1594 11.8685 15.1594H15.0829L14.2005 20.2861L11.8505 20.2759V19.8355C11.8505 18.4034 11.103 17.276 10.2321 15.9612C9.21634 14.4234 7.95271 12.5097 7.95271 9.70363C7.95271 5.17926 10.8511 2.01868 15.0016 2.01868C19.151 2.01868 22.0474 5.17926 22.0474 9.70363C22.0472 13.2758 20.6801 15.13 19.5815 16.6188Z" fill="white"/>
</svg>
