<svg width="30" height="33" viewBox="0 0 30 33" fill="none" xmlns="http://www.w3.org/2000/svg">
<path d="M21.5134 15.4727C21.0856 15.4727 20.7614 15.6733 20.5162 15.9647C20.5087 15.8734 20.5045 15.7949 20.5045 15.7322C20.5045 14.3985 19.7679 13.5367 18.6273 13.5367C18.2861 13.5367 17.9995 13.6009 17.7612 13.7038L17.516 6.27163C17.4693 5.62256 16.9741 4.65771 15.8039 4.65771C14.3795 4.65771 13.8381 5.79133 13.8158 5.83963C13.7851 5.90544 13.7686 5.97708 13.767 6.04979L13.7468 6.86551C13.4597 6.66384 13.0967 6.52585 12.6631 6.52585C11.6245 6.52585 11.0449 7.50078 10.8661 8.07661C10.8518 8.12278 10.8438 8.17055 10.8427 8.21885L10.5784 17.3738C10.139 16.5522 9.517 15.7705 9.04785 15.5311C8.49802 15.2504 7.56926 15.4409 7.01784 15.9456C6.50729 16.4121 6.37355 17.0755 6.65112 17.7654C6.8719 18.3137 7.00564 18.9585 7.16061 19.7047C7.35857 20.6568 7.60482 21.8419 8.12917 23.287C8.97036 25.6089 11.5969 28.0609 12.3293 28.7137V28.8644C12.3293 30.594 13.7373 32.0004 15.468 32.0004H18.9054C20.6361 32.0004 22.0446 30.5924 22.0446 28.8612V28.3597C22.9272 27.1491 23.4548 24.97 23.4776 24.8744C23.4871 24.8341 23.4919 24.7927 23.4919 24.7513V17.499C23.4914 16.2868 22.6969 15.4727 21.5134 15.4727ZM22.4299 24.6866C22.2644 25.3526 21.748 27.053 21.1026 27.8427C21.0251 27.9377 20.9827 28.0561 20.9827 28.1787V28.8607C20.9827 30.0065 20.0507 30.9384 18.9049 30.9384H15.4674C14.3221 30.9384 13.3902 30.0075 13.3902 28.8638V28.4722C13.3902 28.3167 13.3223 28.1691 13.2034 28.0683C13.1715 28.0407 9.99041 25.3101 9.12586 22.9251C8.62805 21.5516 8.39984 20.4557 8.19923 19.4881C8.03364 18.6921 7.89088 18.0048 7.63507 17.369C7.49708 17.0256 7.60323 16.8574 7.71149 16.7491C7.92166 16.5389 8.26291 16.4609 8.45238 16.4609C8.50121 16.4609 8.54048 16.4662 8.56436 16.4758C8.92207 16.6589 9.79192 17.8923 10.0169 18.7844C10.1088 19.1469 10.1549 19.4908 10.1953 19.7944C10.2733 20.3745 10.3348 20.8319 10.6819 21.1084C10.839 21.2326 11.0534 21.2581 11.236 21.1742C11.418 21.0893 11.5369 20.9089 11.5428 20.7083L11.9005 8.33454C11.9732 8.15091 12.2338 7.5 12.6631 7.5C13.2787 7.5 13.4677 8.14454 13.4677 8.14454C13.4677 8.39611 13.5176 16.1409 13.5176 16.1409C13.5192 16.4307 13.7537 16.6653 14.0435 16.6679H14.0483C14.3359 16.6679 14.5716 16.4381 14.579 16.1499L14.8237 6.21007C14.9293 6.05616 15.227 5.71862 15.8028 5.71862C16.3389 5.71862 16.4387 6.16231 16.4551 6.32736L16.7879 16.4418C16.798 16.7337 17.0384 16.9439 17.3334 16.955C17.6253 16.9465 17.8557 16.7035 17.8488 16.4121L17.8159 15.0343C17.8727 14.8969 18.0621 14.5981 18.6257 14.5981C19.3003 14.5981 19.4415 15.2148 19.4415 15.7322C19.4415 16.3749 19.7493 18.0345 19.7843 18.2213C19.8331 18.4803 20.0624 18.665 20.3288 18.6539C20.5926 18.6427 20.8075 18.4389 20.8341 18.1762C20.9078 17.4332 21.2268 16.5347 21.5123 16.5347C22.2697 16.5347 22.4289 17.0596 22.4289 17.4995L22.4299 24.6866Z" fill="white" stroke="white"/>
<path d="M8.52029 4.12059C10.1066 3.32716 12.3829 2.87234 14.7658 2.87234C17.499 2.87234 19.9982 3.45719 21.5611 4.43902L19.7084 5.11357C19.4329 5.21334 19.2912 5.5185 19.3915 5.79342C19.4696 6.00889 19.6734 6.14263 19.8899 6.14263C19.9504 6.14263 20.0114 6.13255 20.0714 6.11026L23.0636 5.02069C23.339 4.92091 23.4807 4.61575 23.381 4.34084L22.2919 1.34864C22.1916 1.07266 21.8859 0.931493 21.6116 1.03127C21.3361 1.13157 21.1939 1.43621 21.2942 1.71112L21.9119 3.40836C20.1744 2.40318 17.5685 1.8093 14.7658 1.8093C12.2236 1.8093 9.77438 2.30553 8.04529 3.16954C7.78312 3.30063 7.67644 3.61959 7.80753 3.88176C7.93968 4.145 8.25705 4.25115 8.52029 4.12059Z" fill="white" stroke="white"/>
</svg>
