<svg width="30" height="30" viewBox="0 0 30 30" fill="none" xmlns="http://www.w3.org/2000/svg">
<path d="M22.3094 13.3891L13.5818 7.05035C12.9762 6.61041 12.175 6.54757 11.5079 6.88752C10.8411 7.22742 10.421 7.91271 10.421 8.66128V21.3387C10.421 22.0873 10.841 22.7724 11.5079 23.1122C11.7933 23.2576 12.103 23.3292 12.4118 23.3292C12.8245 23.3292 13.2353 23.2011 13.5818 22.9492L22.3094 16.6106C22.8251 16.2362 23.1301 15.6374 23.1301 14.9998C23.1301 14.3624 22.8251 13.7634 22.3094 13.3891Z" fill="white"/>
<path d="M15.0002 0C6.72911 0 0.000366211 6.72905 0.000366211 15C0.000366211 23.2708 6.72923 30 15.0002 30C23.2712 30 29.9999 23.2708 29.9999 15C29.9999 6.72905 23.2713 0 15.0002 0ZM15.0002 26.3139C8.76184 26.3139 3.68637 21.2385 3.68637 15C3.68637 8.76147 8.76184 3.68625 15.0002 3.68625C21.2386 3.68625 26.3142 8.76147 26.3142 15C26.3141 21.2385 21.2386 26.3139 15.0002 26.3139Z" fill="white"/>
</svg>
