<svg width="30" height="32" viewBox="0 0 30 32" fill="none" xmlns="http://www.w3.org/2000/svg">
<path d="M23.5278 16.2529C23.5278 15.8561 23.2061 15.5344 22.8093 15.5344C22.7952 15.5344 22.7403 15.5344 22.7261 15.5344H20.0073V6.24338C20.0073 3.35231 17.6551 1 14.7639 1C11.8728 1 9.52069 3.35231 9.52069 6.24338V15.5344H6.82032C6.80299 15.5344 6.73597 15.5344 6.71856 15.5344C6.32177 15.5344 6 15.8561 6 16.2529C6 20.8428 9.54794 24.6171 14.0453 24.984V29.5631H10.522C10.1251 29.5631 9.80343 29.8848 9.80343 30.2816C9.80343 30.6784 10.1251 31.0002 10.522 31.0002H19.0062C19.4029 31.0002 19.7248 30.6784 19.7248 30.2816C19.7248 29.8848 19.4029 29.5631 19.0062 29.5631H15.4825V24.984C19.9798 24.6171 23.5278 20.8428 23.5278 16.2529ZM10.9577 15.65H18.5701V16.3833C18.5701 18.4826 16.8624 20.1902 14.7639 20.1902C12.6654 20.1902 10.9577 18.4824 10.9577 16.3833V15.65ZM14.7639 2.43713C16.8626 2.43713 18.5701 4.14434 18.5701 6.2433V14.2128H10.9577V6.24338C10.9577 4.14434 12.6652 2.43713 14.7639 2.43713ZM7.47371 16.9715H9.55572C9.84935 19.5867 12.0718 21.6272 14.7639 21.6272C17.4561 21.6272 19.6785 19.5867 19.9721 16.9715H22.0541C21.6918 20.6747 18.5613 23.5788 14.7639 23.5788C10.9665 23.5788 7.83592 20.6747 7.47371 16.9715Z" fill="white"/>
<path fill-rule="evenodd" clip-rule="evenodd" d="M9.02069 6.24338C9.02069 3.07619 11.5966 0.5 14.7639 0.5C17.9312 0.5 20.5073 3.07617 20.5073 6.24338V15.0344H22.8084C23.4813 15.0344 24.0278 15.5799 24.0278 16.2529C24.0278 20.9483 20.5167 24.8348 15.9825 25.4334V29.0631H19.0062C19.679 29.0631 20.2248 29.6086 20.2248 30.2816C20.2248 30.9546 19.679 31.5002 19.0062 31.5002H10.522C9.84896 31.5002 9.30343 30.9545 9.30343 30.2816C9.30343 29.6087 9.84896 29.0631 10.522 29.0631H13.5453V25.4334C9.01103 24.8348 5.5 20.9484 5.5 16.2529C5.5 15.5799 6.04566 15.0344 6.71856 15.0344H9.02069V6.24338ZM14.7639 1.5C12.1489 1.5 10.0207 3.62843 10.0207 6.24338V16.0344H6.7192C6.59851 16.0344 6.5 16.1322 6.5 16.2529C6.5 20.5798 9.84552 24.1397 14.0859 24.4857L14.5453 24.5232V30.0631H10.522C10.4013 30.0631 10.3034 30.1609 10.3034 30.2816C10.3034 30.4023 10.4013 30.5002 10.522 30.5002H19.0062C19.1268 30.5002 19.2248 30.4022 19.2248 30.2816C19.2248 30.161 19.1268 30.0631 19.0062 30.0631H14.9825V24.5232L15.4418 24.4857C19.6823 24.1397 23.0278 20.5798 23.0278 16.2529C23.0278 16.1322 22.93 16.0344 22.8093 16.0344H19.5073V6.24338C19.5073 3.62845 17.3789 1.5 14.7639 1.5ZM14.7639 2.93713C12.9414 2.93713 11.4577 4.4205 11.4577 6.24338V13.7128H18.0701V6.2433C18.0701 4.42051 16.5865 2.93713 14.7639 2.93713ZM10.4577 6.24338C10.4577 3.86818 12.3891 1.93713 14.7639 1.93713C17.1387 1.93713 19.0701 3.86817 19.0701 6.2433V14.7128H10.4577V6.24338ZM10.9577 15.65H10.4577V16.3833C10.4577 18.7584 12.3892 20.6902 14.7639 20.6902C17.1386 20.6902 19.0701 18.7587 19.0701 16.3833V15.15H10.9577V15.65ZM18.0701 16.15H11.4577V16.3833C11.4577 18.2063 12.9416 19.6902 14.7639 19.6902C16.5862 19.6902 18.0701 18.2065 18.0701 16.3833V16.15ZM6.92242 16.4715H10.0027L10.0526 16.9157C10.3182 19.2815 12.3299 21.1272 14.7639 21.1272C17.198 21.1272 19.2096 19.2815 19.4752 16.9157L19.5251 16.4715H22.6054L22.5518 17.0202C22.1646 20.9766 18.8214 24.0788 14.7639 24.0788C10.7064 24.0788 7.36306 20.9766 6.97609 17.0202L6.92242 16.4715ZM8.04765 17.4715C8.62371 20.6554 11.4164 23.0788 14.7639 23.0788C18.1113 23.0788 20.904 20.6555 21.4802 17.4715H20.4014C19.8913 20.1197 17.5598 22.1272 14.7639 22.1272C11.968 22.1272 9.63649 20.1197 9.12643 17.4715H8.04765Z" fill="white"/>
</svg>
