<svg width="30" height="30" viewBox="0 0 30 30" fill="none" xmlns="http://www.w3.org/2000/svg">
<path d="M15.0002 4.30087C9.10056 4.30087 4.3009 9.10058 4.3009 15.0002C4.3009 20.8998 9.10056 25.6995 15.0002 25.6995C20.8998 25.6995 25.6995 20.8998 25.6995 15.0002C25.6995 9.10053 20.8998 4.30087 15.0002 4.30087ZM20.6277 16.1108H15.0002C14.3868 16.1108 13.8895 15.6135 13.8895 15.0002V8.15239C13.8895 7.53901 14.3867 7.0418 15.0002 7.0418C15.6136 7.0418 16.1108 7.53911 16.1108 8.15239V13.8895H20.6277C21.241 13.8895 21.7384 14.3868 21.7384 15.0002C21.7383 15.6135 21.2411 16.1108 20.6277 16.1108Z" fill="white"/>
<path d="M15 0C6.72902 0 0 6.72902 0 15.0001C0 23.2711 6.72902 30 15 30C23.271 30 30 23.2711 30 15.0001C30 6.72902 23.271 0 15 0ZM15 27.6923C8.00147 27.6923 2.3077 21.9985 2.3077 15C2.3077 8.00137 8.00137 2.30755 15 2.30755C21.9985 2.30755 27.6923 8.00137 27.6923 15C27.6923 21.9985 21.9985 27.6923 15 27.6923Z" fill="white"/>
</svg>
