<svg width="30" height="30" viewBox="0 0 30 30" fill="none" xmlns="http://www.w3.org/2000/svg">
<g clip-path="url(#clip0)">
<path d="M29.8326 14.5194C29.7652 14.4346 28.1527 12.4169 25.5353 10.3769C22.0296 7.64458 18.3867 6.20032 15.0001 6.20032C11.6135 6.20032 7.97059 7.64458 4.46486 10.3769C1.84751 12.417 0.235011 14.4346 0.167659 14.5194C-0.0557234 14.8009 -0.0557234 15.1992 0.167659 15.4807C0.235011 15.5655 1.84746 17.5832 4.46486 19.6232C7.97054 22.3555 11.6135 23.7998 15.0001 23.7998C18.3867 23.7998 22.0296 22.3555 25.5353 19.6232C28.1527 17.5831 29.7653 15.5655 29.8326 15.4807C30.056 15.1992 30.056 14.8009 29.8326 14.5194ZM15.0002 19.6393C12.4421 19.6393 10.361 17.5581 10.361 15.0001C10.361 12.4421 12.4421 10.3609 15.0002 10.3609C15.2137 10.3609 15.3868 10.534 15.3868 10.7475V14.6134H19.2528C19.4663 14.6134 19.6393 14.7865 19.6393 15C19.6393 17.5581 17.5583 19.6393 15.0002 19.6393Z" fill="white"/>
</g>
<defs>
<clipPath id="clip0">
<rect width="30" height="30" fill="white"/>
</clipPath>
</defs>
</svg>
